<svg width="24" height="24" fill="none" xmlns="http://www.w3.org/2000/svg"><g fill="#121212"><path d="M16 7a1 1 0 1 1 2 0 1 1 0 0 1-2 0Z"/><path fill-rule="evenodd" clip-rule="evenodd" d="M12 7.25a4.75 4.75 0 1 0 0 9.5 4.75 4.75 0 0 0 0-9.5ZM8.75 12a3.25 3.25 0 1 1 6.5 0 3.25 3.25 0 0 1-6.5 0Z"/><path fill-rule="evenodd" clip-rule="evenodd" d="M17.259 2.833a47.72 47.72 0 0 0-10.517 0c-2.012.225-3.636 1.81-3.873 3.832a45.921 45.921 0 0 0 0 10.67c.237 2.022 1.861 3.607 3.873 3.832 3.467.387 7.05.387 10.517 0 2.012-.225 3.636-1.81 3.873-3.832a45.925 45.925 0 0 0 0-10.67c-.237-2.022-1.861-3.607-3.873-3.832Zm-10.35 1.49a46.22 46.22 0 0 1 10.183 0c1.33.15 2.396 1.199 2.55 2.517a44.421 44.421 0 0 1 0 10.32c-.154 1.318-1.22 2.368-2.55 2.516a46.217 46.217 0 0 1-10.183 0c-1.33-.148-2.396-1.198-2.55-2.516a44.421 44.421 0 0 1 0-10.32c.154-1.318 1.22-2.368 2.55-2.516Z"/></g></svg>