<svg width="24" height="24" fill="none" xmlns="http://www.w3.org/2000/svg"><path fill-rule="evenodd" clip-rule="evenodd" d="M15.021 3.344c.509-.087 1.078-.117 1.614-.026a4.85 4.85 0 0 1 2.54 1.273c.456.01.905-.08 1.302-.207a5.37 5.37 0 0 0 1.098-.502l.01-.006a.75.75 0 0 1 1.041 1.037c-.207.315-.496.877-.819 1.507l-.154.301c-.186.36-.376.724-.553 1.036-.111.196-.23.395-.35.567v.274A12.34 12.34 0 0 1 8.287 21.03a12.32 12.32 0 0 1-6.694-1.97.75.75 0 0 1 .5-1.375c.3.038.602.056.905.055a7.471 7.471 0 0 0 3.128-.696 4.863 4.863 0 0 1-2.61-2.923.75.75 0 0 1 .156-.732A4.85 4.85 0 0 1 2.05 9.794V9.74a.75.75 0 0 1 .553-.724A4.84 4.84 0 0 1 2.09 6.84c0-.856.223-1.698.65-2.442a.75.75 0 0 1 1.232-.1 10.89 10.89 0 0 0 7.006 3.93 4.848 4.848 0 0 1 2.562-4.406c.402-.214.934-.385 1.482-.478ZM3.743 10.89a3.35 3.35 0 0 0 2.503 2.164.75.75 0 0 1 .072 1.453c-.272.083-.551.141-.834.173a3.361 3.361 0 0 0 2.59 1.3.75.75 0 0 1 .45 1.34 8.97 8.97 0 0 1-3.548 1.694c1.065.341 2.183.517 3.313.516h.009A10.842 10.842 0 0 0 19.25 8.607V8.07a.75.75 0 0 1 .186-.495c.07-.079.19-.261.36-.559.16-.283.338-.623.523-.982l.034-.066a4.993 4.993 0 0 1-1.594.097.75.75 0 0 1-.47-.237 3.35 3.35 0 0 0-1.904-1.032 3.42 3.42 0 0 0-1.11.025 3.605 3.605 0 0 0-1.028.323 3.35 3.35 0 0 0-1.678 3.74.75.75 0 0 1-.767.925 12.39 12.39 0 0 1-8.148-3.627 3.41 3.41 0 0 0-.064.657v.002a3.34 3.34 0 0 0 1.486 2.785A.75.75 0 0 1 4.64 11a4.79 4.79 0 0 1-.897-.109Z" fill="#121212"/></svg>